<svg width="78" height="14" viewBox="0 0 78 14" fill="none" xmlns="http://www.w3.org/2000/svg">
<path d="M0.494 13H9.728V10.624H3.41V0.399999H0.494V13ZM20.575 8.194C20.575 5.08 18.379 3.172 15.535 3.172C12.583 3.172 10.369 5.26 10.369 8.158C10.369 11.038 12.547 13.144 15.895 13.144C17.641 13.144 18.991 12.604 19.891 11.578L18.397 9.958C17.731 10.588 16.993 10.894 15.967 10.894C14.491 10.894 13.465 10.156 13.195 8.95H20.521C20.539 8.716 20.575 8.41 20.575 8.194ZM15.553 5.296C16.813 5.296 17.731 6.088 17.929 7.312H13.159C13.357 6.07 14.275 5.296 15.553 5.296ZM33.2609 13L28.5629 6.484L32.9549 0.399999H29.8049L26.9609 4.486L24.0629 0.399999H20.7509L25.1789 6.592L20.5169 13H23.8649L26.8529 8.626L29.8949 13H33.2609Z" fill="#1882FF"/>
<path d="M43.4825 0.399999V8.05L37.2185 0.399999H34.8065V13H37.6865V5.35L43.9685 13H46.3625V0.399999H43.4825ZM53.7536 13.144C56.8316 13.144 59.0636 11.074 59.0636 8.158C59.0636 5.242 56.8316 3.172 53.7536 3.172C50.6756 3.172 48.4256 5.242 48.4256 8.158C48.4256 11.074 50.6756 13.144 53.7536 13.144ZM53.7536 10.84C52.3496 10.84 51.2696 9.832 51.2696 8.158C51.2696 6.484 52.3496 5.476 53.7536 5.476C55.1576 5.476 56.2196 6.484 56.2196 8.158C56.2196 9.832 55.1576 10.84 53.7536 10.84ZM66.4305 10.552C66.1245 10.786 65.7105 10.912 65.2965 10.912C64.5405 10.912 64.0905 10.462 64.0905 9.634V5.692H66.5025V3.532H64.0905V1.174H61.2825V3.532H59.7885V5.692H61.2825V9.67C61.2825 11.974 62.6145 13.144 64.9005 13.144C65.7645 13.144 66.6105 12.946 67.1865 12.532L66.4305 10.552ZM77.95 8.194C77.95 5.08 75.754 3.172 72.91 3.172C69.958 3.172 67.744 5.26 67.744 8.158C67.744 11.038 69.922 13.144 73.27 13.144C75.016 13.144 76.366 12.604 77.266 11.578L75.772 9.958C75.106 10.588 74.368 10.894 73.342 10.894C71.866 10.894 70.84 10.156 70.57 8.95H77.896C77.914 8.716 77.95 8.41 77.95 8.194ZM72.928 5.296C74.188 5.296 75.106 6.088 75.304 7.312H70.534C70.732 6.07 71.65 5.296 72.928 5.296Z" fill="white"/>
</svg>
