<svg width="629" height="419" viewBox="0 0 629 419" fill="none" xmlns="http://www.w3.org/2000/svg">
<path d="M144.896 63.2438H44.6087V243.263H144.896V63.2438Z" fill="#EBEBEB"/>
<path d="M139.856 68.4646H48.6175V237.9H139.856V68.4646Z" fill="#FAFAFA"/>
<path d="M139.856 70.459L48.6175 186.43V68.4646H139.856V70.459Z" fill="#F5F5F5"/>
<path d="M141.835 117.203H48.6175V119.004H141.835V117.203Z" fill="#EBEBEB"/>
<path d="M141.835 157.552H48.6175V159.354H141.835V157.552Z" fill="#EBEBEB"/>
<path d="M141.835 197.902H48.6175V199.704H141.835V197.902Z" fill="#EBEBEB"/>
<path d="M91.9346 118.099L91.9346 242.693H96.5473L96.5473 118.099H91.9346Z" fill="#EBEBEB"/>
<path d="M68.2758 68.4646H66.1876V118.108H68.2758V68.4646Z" fill="#EBEBEB"/>
<path d="M86.2904 68.4646H84.2021V118.108H86.2904V68.4646Z" fill="#EBEBEB"/>
<path d="M104.297 68.4646H102.208V118.108H104.297V68.4646Z" fill="#EBEBEB"/>
<path d="M122.311 68.4646H120.223V118.108H122.311V68.4646Z" fill="#EBEBEB"/>
<path d="M44.6171 60.1851H40.3734V244.369H44.6171V60.1851Z" fill="#F5F5F5"/>
<path d="M149.14 244.88L144.896 243.263V60.1851H149.14V244.88Z" fill="#E0E0E0"/>
<path d="M149.148 58.3331H40.3734V63.2438H149.148V58.3331Z" fill="#E0E0E0"/>
<path d="M152.017 245.484H37.3626V250.059H152.017V245.484Z" fill="#E0E0E0"/>
<path d="M144.896 243.263L152.008 245.484H37.3626L44.6087 243.263H144.896Z" fill="#EBEBEB"/>
<path d="M576.298 175.46C576.298 175.46 569.203 174.949 569.857 190.838C570.511 206.726 572.138 215.19 572.138 215.19C572.138 215.19 571.929 218.718 569.195 218.022C566.461 217.327 561.328 213.899 558.787 216.464C556.246 219.028 557.109 223.168 560.582 228.003C564.054 232.838 571.333 243.606 571.987 244.587C572.642 245.567 572.885 247.352 570.948 247.176C569.01 247 555.952 242.576 554.216 248.894C552.48 255.213 564.414 267.003 565.689 268.311C566.964 269.618 567.039 270.456 566.528 271.252C566.016 272.048 561.756 270.146 557.99 269.04C554.225 267.934 549.662 267.305 548.966 271.034C548.27 274.763 553.528 285.682 573.195 297.155L582.655 301.873L591.612 296.166C610.063 282.758 614.156 271.403 613.099 267.758C612.042 264.112 607.555 265.193 603.916 266.668C600.276 268.143 596.242 270.464 595.646 269.727C595.051 268.989 595.034 268.151 596.175 266.719C597.315 265.286 608 252.372 605.643 246.255C603.287 240.137 590.74 245.852 588.87 246.213C587 246.573 587.033 244.763 587.578 243.741C588.123 242.718 594.288 231.229 597.265 226.101C600.242 220.972 600.779 216.824 597.894 214.444C595.009 212.064 590.346 216.07 587.696 217.033C585.045 217.997 584.492 214.52 584.492 214.52C584.492 214.52 585.255 205.938 584.316 190.058C583.377 174.178 576.164 175.46 576.164 175.46" fill="#EBEBEB"/>
<path d="M576.852 189.69C576.859 189.801 576.859 189.913 576.852 190.025L576.927 190.997C576.986 191.835 577.07 193.134 577.179 194.751C577.397 198.011 577.682 202.729 578.018 208.553C578.663 220.218 579.426 236.333 580.198 254.132C580.97 271.931 581.699 288.062 582.278 299.719C582.58 305.543 582.815 310.253 582.982 313.529C583.066 315.155 583.125 316.412 583.167 317.292C583.167 317.702 583.167 318.029 583.167 318.264C583.172 318.376 583.172 318.487 583.167 318.599C583.167 318.599 583.167 318.49 583.167 318.264C583.167 318.038 583.167 317.711 583.091 317.292C583.033 316.454 582.94 315.155 582.831 313.538C582.613 310.286 582.337 305.568 581.993 299.736C581.339 288.071 580.584 271.956 579.804 254.149C579.024 236.341 578.311 220.235 577.724 208.57C577.43 202.754 577.187 198.036 577.028 194.759C576.944 193.142 576.877 191.877 576.835 191.005C576.835 190.586 576.835 190.259 576.835 190.025C576.835 189.79 576.852 189.69 576.852 189.69Z" fill="#E0E0E0"/>
<path d="M565.781 221.55C565.995 221.69 566.192 221.853 566.368 222.036C566.737 222.372 567.207 222.874 567.87 223.478C569.119 224.718 570.805 226.469 572.616 228.439C574.428 230.408 575.971 232.134 577.246 233.467L578.655 234.992C578.841 235.165 579.007 235.359 579.15 235.57C579.15 235.57 578.915 235.419 578.554 235.092C578.193 234.766 577.715 234.254 577.061 233.643C575.82 232.394 574.168 230.618 572.348 228.615L567.693 223.587C567.132 222.992 566.662 222.481 566.276 222.062C566.093 221.91 565.927 221.739 565.781 221.55V221.55Z" fill="#E0E0E0"/>
<path d="M580.081 235.294C580.013 235.227 583.477 231.606 587.813 227.207C592.149 222.807 595.73 219.305 595.797 219.38C595.864 219.455 592.443 223.067 588.073 227.467C583.704 231.866 580.156 235.369 580.081 235.294Z" fill="#E0E0E0"/>
<path d="M580.047 262.688C580.25 262.525 580.469 262.385 580.701 262.269L582.555 261.23C584.115 260.392 586.27 259.135 588.593 257.71C590.916 256.285 592.988 254.928 594.464 253.931L596.225 252.749C596.431 252.585 596.66 252.453 596.904 252.355C596.723 252.545 596.524 252.716 596.309 252.866C595.915 253.176 595.336 253.612 594.632 254.14C593.181 255.188 591.134 256.587 588.761 258.02C586.387 259.453 584.249 260.635 582.655 261.456C581.817 261.867 581.204 262.185 580.743 262.394C580.524 262.52 580.29 262.619 580.047 262.688V262.688Z" fill="#E0E0E0"/>
<path d="M564.372 253.076C564.601 253.156 564.82 253.26 565.026 253.386C565.437 253.604 566.024 253.931 566.704 254.333C568.146 255.171 570.126 256.302 572.298 257.593C574.47 258.883 576.424 260.107 577.833 260.945C578.537 261.389 579.099 261.741 579.51 262.001C579.722 262.115 579.917 262.259 580.089 262.428C579.86 262.35 579.64 262.246 579.435 262.118C579.024 261.9 578.437 261.573 577.757 261.171C576.323 260.333 574.344 259.202 572.172 257.911C570 256.621 568.046 255.397 566.637 254.559C565.932 254.123 565.37 253.763 564.959 253.503C564.548 253.244 564.356 253.126 564.372 253.076Z" fill="#E0E0E0"/>
<path d="M561.261 277.286C561.556 277.384 561.838 277.519 562.1 277.688L564.305 278.903C566.159 279.934 568.7 281.417 571.501 283.018C574.302 284.618 576.827 286.143 578.647 287.208L580.785 288.523C581.059 288.67 581.315 288.847 581.548 289.051C581.258 288.942 580.977 288.807 580.71 288.649L578.504 287.434C576.659 286.395 574.109 284.92 571.308 283.311C568.507 281.702 565.983 280.194 564.171 279.121L562.024 277.805C561.756 277.653 561.501 277.479 561.261 277.286Z" fill="#E0E0E0"/>
<path d="M581.137 288.657C581.395 288.442 581.676 288.256 581.976 288.104L584.274 286.705C586.22 285.523 588.895 283.881 591.822 281.987C594.749 280.093 597.315 278.325 599.177 277.026L601.391 275.492C601.65 275.285 601.931 275.108 602.23 274.964C601.994 275.194 601.741 275.407 601.475 275.601C600.972 275.995 600.242 276.557 599.328 277.235C597.5 278.585 594.933 280.403 592.015 282.263C589.096 284.124 586.404 285.766 584.467 286.889C583.477 287.451 582.672 287.895 582.102 288.197C581.794 288.377 581.471 288.531 581.137 288.657V288.657Z" fill="#E0E0E0"/>
<path d="M595.353 304.973H569.178L577.724 369.583H586.815L595.353 304.973Z" fill="#E0E0E0"/>
<path d="M570.537 312.909C570.537 312.909 570.537 313.001 570.679 313.144C570.851 313.342 571.066 313.497 571.308 313.596C571.765 313.754 572.252 313.804 572.732 313.745C573.212 313.685 573.671 313.517 574.076 313.253C575.133 312.674 576.055 311.526 577.43 311.024C578.998 310.519 580.689 310.551 582.236 311.116C583.815 311.652 585.322 312.381 586.723 313.286C587.89 314.019 589.106 314.672 590.363 315.239C591.219 315.623 592.125 315.885 593.055 316.018C593.307 316.055 593.563 316.072 593.818 316.068C593.986 316.068 594.078 316.068 594.078 316.068C592.837 315.878 591.629 315.514 590.489 314.987C589.262 314.388 588.072 313.716 586.924 312.976C585.508 312.039 583.978 311.287 582.37 310.739C580.731 310.146 578.94 310.125 577.288 310.68C576.588 310.963 575.942 311.362 575.376 311.862C574.901 312.279 574.4 312.666 573.875 313.018C573.512 313.268 573.099 313.437 572.665 313.514C572.231 313.591 571.785 313.573 571.359 313.462C571.051 313.334 570.771 313.146 570.537 312.909V312.909Z" fill="#F5F5F5"/>
<path d="M571.493 324.817C571.493 324.817 571.702 324.549 572.113 324.122C572.702 323.531 573.416 323.079 574.202 322.798C575.366 322.374 576.603 322.186 577.841 322.245C579.37 322.363 580.891 322.57 582.395 322.865C583.931 323.163 585.503 323.228 587.058 323.057C588.328 322.894 589.567 322.541 590.732 322.01C591.514 321.66 592.254 321.221 592.937 320.703C593.199 320.528 593.433 320.316 593.633 320.074C592.668 320.708 591.656 321.268 590.606 321.75C589.459 322.23 588.251 322.546 587.016 322.689C585.495 322.826 583.962 322.75 582.462 322.462C580.94 322.163 579.399 321.964 577.85 321.867C576.565 321.828 575.286 322.053 574.093 322.529C573.283 322.854 572.562 323.365 571.988 324.021C571.837 324.203 571.705 324.399 571.593 324.608C571.547 324.671 571.513 324.742 571.493 324.817Z" fill="#F5F5F5"/>
<path d="M592.392 331.186C592.178 331.015 591.933 330.887 591.671 330.809C590.973 330.552 590.241 330.397 589.499 330.348C588.402 330.278 587.301 330.34 586.22 330.532C585.004 330.733 583.704 331.069 582.32 331.37C581.041 331.667 579.732 331.813 578.42 331.806C577.355 331.78 576.305 331.552 575.325 331.136C574.431 330.722 573.632 330.129 572.977 329.393C573.077 329.647 573.228 329.878 573.422 330.071C573.916 330.636 574.521 331.092 575.199 331.412C576.204 331.886 577.293 332.154 578.403 332.2C579.749 332.232 581.094 332.091 582.404 331.781C583.796 331.488 585.096 331.144 586.287 330.943C587.339 330.74 588.41 330.65 589.482 330.675C590.47 330.723 591.447 330.894 592.392 331.186Z" fill="#F5F5F5"/>
<path d="M573.807 340.144C574.6 339.804 575.479 339.716 576.323 339.893C577.245 340.117 578.138 340.449 578.982 340.882C580.067 341.404 581.238 341.725 582.437 341.828C584.624 342.026 586.817 341.518 588.694 340.379C589.257 340.039 589.78 339.637 590.254 339.18C590.572 338.845 590.732 338.652 590.715 338.627C590.021 339.167 589.296 339.665 588.543 340.119C586.691 341.14 584.577 341.586 582.471 341.401C579.997 341.267 578.093 339.784 576.374 339.591C575.713 339.476 575.034 339.534 574.403 339.759C573.984 339.935 573.791 340.127 573.807 340.144Z" fill="#F5F5F5"/>
<path d="M575.267 352.547C576.017 352.566 576.762 352.417 577.447 352.111C578.764 351.675 580.391 350.669 582.295 349.915C583.177 349.554 584.118 349.355 585.071 349.329C585.846 349.33 586.611 349.505 587.31 349.84C587.944 350.18 588.497 350.655 588.929 351.231C588.893 351.031 588.806 350.843 588.677 350.686C588.363 350.223 587.944 349.84 587.453 349.572C586.722 349.176 585.909 348.958 585.079 348.935C584.072 348.937 583.076 349.133 582.144 349.513C580.173 350.301 578.596 351.34 577.338 351.834C576.08 352.329 575.258 352.48 575.267 352.547Z" fill="#F5F5F5"/>
<path d="M576.55 358.32C577.081 358.577 577.646 358.758 578.227 358.857C579.59 359.186 580.974 359.418 582.37 359.552C583.763 359.691 585.164 359.733 586.563 359.678C587.147 359.696 587.729 359.625 588.291 359.468C588.291 359.343 585.641 359.468 582.42 359.125C579.2 358.781 576.583 358.195 576.55 358.32Z" fill="#F5F5F5"/>
<path d="M580.5 70.6433H499.686V123.739H580.5V70.6433Z" fill="#E0E0E0"/>
<path d="M577.648 72.8137H502.495V121.359H577.648V72.8137Z" fill="#FAFAFA"/>
<path d="M552.329 90.5123H527.815V103.87H552.329V90.5123Z" fill="#E0E0E0"/>
<path d="M603.211 370.438C603.211 370.564 473.939 370.656 314.517 370.656C155.095 370.656 25.789 370.564 25.789 370.438C25.789 370.312 155.036 370.22 314.517 370.22C473.998 370.22 603.211 370.321 603.211 370.438Z" fill="#263238"/>
<path d="M243.297 32.0535H416.356V196.746C416.356 200.351 414.923 203.808 412.372 206.357C409.821 208.906 406.361 210.338 402.753 210.338H243.297V32.0535Z" fill="#EBEBEB"/>
<path d="M402.065 85.1157C402.065 85.476 370.791 85.7693 332.213 85.7693C293.634 85.7693 262.343 85.476 262.343 85.1157C262.343 84.7553 293.617 84.462 332.213 84.462C370.808 84.462 402.065 84.7553 402.065 85.1157Z" fill="#455A64"/>
<path d="M333.035 97.208C333.035 97.5683 317.586 97.8616 298.523 97.8616C279.461 97.8616 264.004 97.5683 264.004 97.208C264.004 96.8476 279.461 96.5543 298.523 96.5543C317.586 96.5543 333.035 96.8309 333.035 97.208Z" fill="#455A64"/>
<path d="M360.627 96.0766C360.627 96.437 356.534 96.7303 351.485 96.7303C346.436 96.7303 342.344 96.437 342.344 96.0766C342.344 95.7163 346.436 95.423 351.485 95.423C356.534 95.423 360.627 95.7163 360.627 96.0766Z" fill="#455A64"/>
<path d="M405.797 95.3309C405.797 95.6912 397.696 95.9845 387.699 95.9845C377.702 95.9845 369.6 95.6912 369.6 95.3309C369.6 94.9705 377.702 94.6772 387.699 94.6772C397.696 94.6772 405.797 94.9705 405.797 95.3309Z" fill="#455A64"/>
<path d="M327.273 108.747C327.273 109.116 312.739 109.409 294.808 109.409C276.877 109.409 262.343 109.116 262.343 108.747C262.343 108.379 276.877 108.094 294.808 108.094C312.739 108.094 327.273 108.387 327.273 108.747Z" fill="#455A64"/>
<path d="M405.797 108.42C405.797 108.781 389.93 109.074 370.355 109.074C350.781 109.074 334.905 108.781 334.905 108.42C334.905 108.06 350.772 107.767 370.355 107.767C389.938 107.767 405.797 108.052 405.797 108.42Z" fill="#455A64"/>
<path d="M405.797 120.052C405.797 120.412 398.736 120.706 390.014 120.706C381.291 120.706 374.23 120.412 374.23 120.052C374.23 119.692 381.3 119.39 390.014 119.39C398.727 119.39 405.797 119.683 405.797 120.052Z" fill="#455A64"/>
<path d="M340.499 72.1685C340.499 72.5289 323.373 72.8222 302.255 72.8222C281.138 72.8222 264.004 72.5289 264.004 72.1685C264.004 71.8082 281.129 71.5149 302.255 71.5149C323.381 71.5149 340.499 71.8082 340.499 72.1685Z" fill="#D7FA00"/>
<path d="M446.9 131.918H111.828C105.079 131.918 99.6084 137.384 99.6084 144.128V357.256C99.6084 363.999 105.079 369.466 111.828 369.466H446.9C453.649 369.466 459.12 363.999 459.12 357.256V144.128C459.12 137.384 453.649 131.918 446.9 131.918Z" fill="#263238"/>
<path d="M85.0743 351.893H474.568V357.759C474.568 361.715 472.995 365.509 470.196 368.306C467.396 371.104 463.599 372.675 459.64 372.675H100.003C96.0434 372.675 92.2463 371.104 89.4467 368.306C86.6471 365.509 85.0743 361.715 85.0743 357.759V351.893Z" fill="#263238"/>
<path d="M448.955 141.354H109.756V341.963H448.955V141.354Z" fill="#455A64"/>
<path d="M244.421 351.893H245.939H250.367L266.797 351.826L321.754 351.708H322.157L321.956 352.06L319.775 355.798L317.469 359.745L317.402 359.862H317.268L249.252 359.737H249.193V359.686L245.629 353.896L244.731 352.429L244.446 351.943C244.446 351.943 244.572 352.119 244.782 352.454L245.738 353.921C246.576 355.22 247.784 357.114 249.369 359.569L249.277 359.519L317.293 359.393L317.091 359.51L319.398 355.563L321.578 351.826L321.78 352.178L267.048 352.06L250.51 351.96H246.014H244.832L244.421 351.893Z" fill="#455A64"/>
<path d="M459.111 351.893C459.111 352.019 378.599 352.111 279.368 352.111C180.137 352.111 99.6084 352.019 99.6084 351.893C99.6084 351.767 180.07 351.675 279.368 351.675C378.666 351.675 459.111 351.776 459.111 351.893Z" fill="#455A64"/>
<path d="M367.336 101.289C370.005 101.289 372.565 102.349 374.452 104.234C376.34 106.12 377.4 108.678 377.4 111.345V131.935H347.376V112.921C347.375 111.393 347.675 109.88 348.26 108.468C348.844 107.056 349.702 105.774 350.783 104.693C351.864 103.613 353.148 102.756 354.56 102.172C355.973 101.588 357.487 101.288 359.016 101.289H367.336Z" fill="#263238"/>
<path d="M367.336 101.289C367.336 101.415 339.006 101.482 304.059 101.457C269.111 101.432 240.781 101.297 240.781 101.18C240.781 101.063 269.103 100.987 304.059 101.013C339.014 101.038 367.336 101.172 367.336 101.289Z" fill="#263238"/>
<path d="M367.101 101.264L354.571 101.18L336.381 101.289H202.748C197.298 101.289 192.072 103.452 188.218 107.302C184.365 111.153 182.2 116.375 182.2 121.82V342.44H355.268V112.543C355.779 101.289 367.101 101.264 367.101 101.264Z" fill="#FAFAFA"/>
<path d="M367.101 101.264L262.746 101.49H210.572H204.048C202.957 101.49 201.884 101.49 200.81 101.582C199.743 101.696 198.686 101.889 197.649 102.161C194.516 102.968 191.623 104.516 189.215 106.675C186.807 108.833 184.953 111.539 183.811 114.563C183.643 115.074 183.408 115.56 183.291 116.08L182.896 117.638C182.692 118.692 182.566 119.759 182.519 120.831C182.427 125.147 182.519 129.513 182.519 133.854L182.662 342.39L182.242 341.971L355.31 342.088L355.008 342.39L355.091 218.366L355.192 156.354L355.251 125.348V117.596V113.717C355.226 113.07 355.251 112.423 355.326 111.781C355.371 111.136 355.475 110.496 355.637 109.87C356.177 107.309 357.677 105.051 359.83 103.56C360.893 102.819 362.068 102.254 363.31 101.884C364.542 101.513 365.816 101.304 367.101 101.264V101.264ZM367.101 101.264C365.808 101.321 364.527 101.549 363.294 101.943C362.054 102.313 360.882 102.879 359.822 103.619C357.683 105.111 356.2 107.367 355.679 109.92C355.519 110.544 355.418 111.181 355.377 111.823C355.308 112.465 355.286 113.112 355.31 113.758V125.381L355.377 156.387L355.477 218.399L355.553 342.424V342.742H355.242L182.175 342.851H181.764V342.432L181.898 133.896C181.898 129.546 181.898 125.214 181.957 120.848C182.006 119.748 182.135 118.653 182.343 117.571L182.762 115.979C182.88 115.443 183.123 114.94 183.291 114.42C184.466 111.32 186.371 108.548 188.843 106.337C191.316 104.126 194.284 102.541 197.498 101.716C198.564 101.441 199.648 101.245 200.743 101.13C201.842 101.071 202.941 101.012 204.022 101.038H210.547H262.721L367.101 101.264Z" fill="#263238"/>
<path d="M208.274 140.985H238.466L238.517 151.091H237.066C236.596 147.477 235.243 145.03 233.007 143.75C231.242 142.938 229.313 142.545 227.371 142.602V168.999C227.371 170.851 227.69 172.075 228.335 172.678C228.981 173.282 230.323 173.583 232.369 173.583V174.857H214.497V173.583C216.451 173.583 217.76 173.273 218.397 172.661C219.035 172.05 219.37 170.835 219.37 168.999V142.602C217.429 142.556 215.502 142.949 213.734 143.75C211.336 145.066 209.977 147.505 209.667 151.091H208.224L208.274 140.985Z" fill="#D7FA00"/>
<path d="M331.517 143.298C331.517 143.658 314.861 143.952 294.313 143.952C273.766 143.952 257.11 143.658 257.11 143.298C257.11 142.938 273.766 142.644 294.313 142.644C314.861 142.644 331.517 142.904 331.517 143.298Z" fill="#D7FA00"/>
<path d="M287.369 155.147C287.369 155.508 280.928 155.801 272.986 155.801C265.044 155.801 258.603 155.508 258.603 155.147C258.603 154.787 265.044 154.485 272.986 154.485C280.928 154.485 287.369 154.779 287.369 155.147Z" fill="#455A64"/>
<path d="M251.105 191.382C251.105 191.743 238.877 192.036 223.79 192.036C208.702 192.036 196.466 191.743 196.466 191.382C196.466 191.022 208.694 190.729 223.79 190.729C238.886 190.729 251.105 191.064 251.105 191.382Z" fill="#455A64"/>
<path d="M312.982 191.382C312.982 191.743 300.746 192.036 285.667 192.036C270.587 192.036 258.343 191.743 258.343 191.382C258.343 191.022 270.571 190.729 285.667 190.729C300.763 190.729 312.982 191.064 312.982 191.382Z" fill="#D7FA00"/>
<path d="M251.105 201.061C251.105 201.422 238.877 201.715 223.79 201.715C208.702 201.715 196.466 201.422 196.466 201.061C196.466 200.701 208.694 200.408 223.79 200.408C238.886 200.408 251.105 200.701 251.105 201.061Z" fill="#455A64"/>
<path d="M251.105 210.74C251.105 211.101 238.877 211.394 223.79 211.394C208.702 211.394 196.466 211.101 196.466 210.74C196.466 210.38 208.694 210.078 223.79 210.078C238.886 210.078 251.105 210.338 251.105 210.74Z" fill="#D7FA00"/>
<path d="M287.369 174.857C287.369 175.217 280.928 175.511 272.986 175.511C265.044 175.511 258.603 175.217 258.603 174.857C258.603 174.497 265.044 174.203 272.986 174.203C280.928 174.203 287.369 174.497 287.369 174.857Z" fill="#455A64"/>
<path d="M337.27 191.382C337.27 191.743 332.976 192.036 327.684 192.036C322.392 192.036 318.089 191.743 318.089 191.382C318.089 191.022 322.383 190.729 327.684 190.729C332.984 190.729 337.27 191.064 337.27 191.382Z" fill="#455A64"/>
<path d="M342.402 155.147C342.402 155.508 331.349 155.801 317.72 155.801C304.092 155.801 293.039 155.508 293.039 155.147C293.039 154.787 304.084 154.485 317.72 154.485C331.357 154.485 342.402 154.779 342.402 155.147Z" fill="#455A64"/>
<path d="M340.172 164.583C340.172 164.944 321.914 165.237 299.387 165.237C276.861 165.237 258.603 164.944 258.603 164.583C258.603 164.223 276.861 163.93 299.387 163.93C321.914 163.93 340.172 164.248 340.172 164.583Z" fill="#455A64"/>
<path d="M337.27 201.061C337.27 201.422 319.599 201.715 297.852 201.715C276.106 201.715 258.385 201.422 258.385 201.061C258.385 200.701 276.047 200.408 297.852 200.408C319.658 200.408 337.27 200.701 337.27 201.061Z" fill="#455A64"/>
<path d="M337.27 229.076C337.27 229.436 320.689 229.729 300.243 229.729C279.796 229.729 263.207 229.436 263.207 229.076C263.207 228.715 279.788 228.422 300.243 228.422C320.698 228.422 337.27 228.715 337.27 229.076Z" fill="#D7FA00"/>
<path d="M337.27 238.495C337.27 238.855 320.689 239.148 300.243 239.148C279.796 239.148 263.207 238.855 263.207 238.495C263.207 238.134 279.788 237.841 300.243 237.841C320.698 237.841 337.27 238.134 337.27 238.495Z" fill="#455A64"/>
<path d="M337.27 247.914C337.27 248.274 320.689 248.568 300.243 248.568C279.796 248.568 263.207 248.274 263.207 247.914C263.207 247.554 279.788 247.26 300.243 247.26C320.698 247.26 337.27 247.554 337.27 247.914Z" fill="#455A64"/>
<path d="M337.27 257.333C337.27 257.693 320.689 257.987 300.243 257.987C279.796 257.987 263.207 257.693 263.207 257.333C263.207 256.973 279.788 256.679 300.243 256.679C320.698 256.679 337.27 256.973 337.27 257.333Z" fill="#455A64"/>
<path d="M305.845 266.752C305.845 266.928 303.455 267.096 299.597 267.213C295.739 267.33 290.372 267.406 284.501 267.406C278.63 267.406 273.28 267.33 269.405 267.213C265.53 267.096 263.165 266.928 263.165 266.752C263.165 266.576 265.547 266.409 269.405 266.291C273.263 266.174 278.63 266.099 284.501 266.099C290.372 266.099 295.714 266.174 299.597 266.291C303.48 266.409 305.845 266.568 305.845 266.752Z" fill="#455A64"/>
<path d="M323.851 211.243C323.851 211.603 309.594 211.897 291.982 211.897C274.37 211.897 260.112 211.603 260.112 211.243C260.112 210.883 274.37 210.589 291.982 210.589C309.594 210.589 323.851 210.883 323.851 211.243Z" fill="#455A64"/>
<path d="M249.814 230.14L253.747 302.845L182.603 311.744L182.544 229.52L249.814 230.14Z" fill="#E0E0E0"/>
<path d="M157.699 225.102L157.201 302.23L253.746 302.853L254.245 225.725L157.699 225.102Z" fill="#F5F5F5"/>
<path d="M160.997 229.984L160.561 297.4L250.322 297.979L250.758 230.564L160.997 229.984Z" fill="#D7FA00"/>
<g opacity="0.2">
<path opacity="0.2" d="M160.554 297.389L192.18 255.691L211.428 282.029L224.696 268.101L250.325 297.968L160.554 297.389Z" fill="black"/>
</g>
<g opacity="0.2">
<path opacity="0.2" d="M219.873 250.73C219.865 252.127 219.442 253.491 218.658 254.648C217.874 255.805 216.764 256.704 215.468 257.231C214.173 257.758 212.75 257.889 211.38 257.607C210.01 257.326 208.754 256.645 207.772 255.65C206.789 254.655 206.124 253.392 205.86 252.019C205.597 250.647 205.746 249.227 206.29 247.94C206.834 246.652 207.748 245.555 208.917 244.787C210.085 244.018 211.455 243.613 212.854 243.623C213.782 243.629 214.7 243.817 215.555 244.177C216.41 244.537 217.186 245.063 217.838 245.723C218.49 246.383 219.005 247.164 219.354 248.024C219.704 248.883 219.88 249.802 219.873 250.73V250.73Z" fill="black"/>
</g>
<path d="M263.039 321.038C263.039 321.333 262.952 321.621 262.788 321.867C262.624 322.112 262.391 322.303 262.118 322.416C261.845 322.529 261.545 322.558 261.255 322.501C260.966 322.443 260.7 322.301 260.491 322.093C260.282 321.884 260.14 321.618 260.082 321.329C260.025 321.039 260.054 320.74 260.167 320.467C260.28 320.194 260.472 319.961 260.717 319.798C260.963 319.634 261.251 319.546 261.547 319.546C261.743 319.545 261.938 319.583 262.119 319.657C262.301 319.732 262.466 319.842 262.605 319.981C262.743 320.119 262.853 320.284 262.928 320.466C263.003 320.647 263.04 320.842 263.039 321.038V321.038Z" fill="#263238"/>
<path d="M271.904 321.038C271.904 321.333 271.817 321.621 271.653 321.866C271.488 322.112 271.255 322.303 270.983 322.416C270.71 322.529 270.41 322.558 270.12 322.501C269.83 322.443 269.564 322.301 269.356 322.093C269.147 321.884 269.005 321.618 268.947 321.329C268.89 321.039 268.919 320.74 269.032 320.467C269.145 320.194 269.336 319.961 269.582 319.798C269.827 319.634 270.116 319.546 270.411 319.546C270.807 319.546 271.187 319.703 271.467 319.983C271.747 320.263 271.904 320.642 271.904 321.038V321.038Z" fill="#263238"/>
<path d="M280.76 321.038C280.76 321.333 280.673 321.621 280.509 321.866C280.345 322.112 280.112 322.303 279.839 322.416C279.566 322.529 279.266 322.558 278.976 322.501C278.687 322.443 278.421 322.301 278.212 322.093C278.003 321.884 277.861 321.618 277.803 321.329C277.746 321.039 277.775 320.74 277.888 320.467C278.001 320.194 278.193 319.961 278.438 319.798C278.684 319.634 278.972 319.546 279.268 319.546C279.664 319.546 280.043 319.703 280.323 319.983C280.603 320.263 280.76 320.642 280.76 321.038V321.038Z" fill="#263238"/>
<path d="M313.401 286.378C313.401 286.738 301.165 287.032 286.078 287.032C270.99 287.032 258.754 286.738 258.754 286.378C258.754 286.018 270.99 285.724 286.078 285.724C301.165 285.724 313.401 286.018 313.401 286.378Z" fill="#D7FA00"/>
<path d="M337.689 296.057C337.689 296.417 320.018 296.711 298.221 296.711C276.425 296.711 258.754 296.417 258.754 296.057C258.754 295.697 276.425 295.403 298.221 295.403C320.018 295.403 337.689 295.697 337.689 296.057Z" fill="#455A64"/>
<path d="M513.355 313.268L512.891 359.727L571.044 360.308L571.509 313.849L513.355 313.268Z" fill="#F5F5F5"/>
<path d="M513.33 315.131L513.067 355.74L567.135 356.089L567.398 315.48L513.33 315.131Z" fill="#D7FA00"/>
<path opacity="0.2" d="M513.054 355.723L532.1 330.608L543.699 346.471L551.692 338.083L567.123 356.074L513.054 355.723Z" fill="black"/>
<g opacity="0.2">
<path opacity="0.2" d="M548.79 327.658C548.787 328.5 548.533 329.323 548.062 330.021C547.591 330.719 546.923 331.262 546.142 331.581C545.362 331.9 544.505 331.981 543.679 331.812C542.853 331.644 542.095 331.235 541.502 330.636C540.909 330.038 540.507 329.277 540.347 328.45C540.187 327.623 540.276 326.767 540.602 325.991C540.929 325.214 541.479 324.552 542.183 324.088C542.886 323.624 543.712 323.379 544.555 323.384C545.683 323.391 546.763 323.845 547.557 324.646C548.351 325.447 548.794 326.53 548.79 327.658V327.658Z" fill="black"/>
</g>
<path d="M502.819 307.335L502.519 353.793L560.671 354.168L560.971 307.711L502.819 307.335Z" fill="#F5F5F5"/>
<path d="M504.813 310.273L504.55 350.882L558.618 351.231L558.88 310.622L504.813 310.273Z" fill="#D7FA00"/>
<path opacity="0.2" d="M504.525 350.871L523.571 325.756L535.17 341.619L543.163 333.231L558.594 351.223L504.525 350.871Z" fill="black"/>
<g opacity="0.2">
<path opacity="0.2" d="M540.261 322.772C540.256 323.616 540 324.439 539.526 325.137C539.051 325.835 538.38 326.377 537.598 326.693C536.815 327.01 535.955 327.086 535.129 326.914C534.302 326.741 533.546 326.327 532.955 325.724C532.365 325.121 531.967 324.356 531.812 323.527C531.657 322.697 531.753 321.841 532.086 321.065C532.42 320.29 532.976 319.632 533.685 319.173C534.394 318.715 535.223 318.477 536.067 318.49C537.19 318.508 538.26 318.968 539.046 319.769C539.831 320.571 540.268 321.65 540.261 322.772Z" fill="black"/>
</g>
<path d="M495.231 303.337L494.93 349.795L553.082 350.17L553.382 303.712L495.231 303.337Z" fill="#F5F5F5"/>
<path d="M497.216 306.266L496.953 346.875L551.021 347.224L551.284 306.615L497.216 306.266Z" fill="#D7FA00"/>
<path opacity="0.2" d="M496.935 346.865L515.981 321.742L527.58 337.613L535.564 329.217L551.004 347.209L496.935 346.865Z" fill="black"/>
<g opacity="0.2">
<path opacity="0.2" d="M532.662 318.758C532.657 319.602 532.401 320.425 531.927 321.123C531.453 321.822 530.782 322.363 529.999 322.679C529.216 322.996 528.357 323.072 527.531 322.9C526.704 322.727 525.947 322.313 525.357 321.71C524.766 321.107 524.368 320.342 524.214 319.513C524.059 318.683 524.154 317.827 524.488 317.051C524.821 316.276 525.378 315.618 526.087 315.159C526.796 314.701 527.625 314.463 528.469 314.476C529.592 314.494 530.662 314.954 531.447 315.756C532.232 316.557 532.669 317.637 532.662 318.758Z" fill="black"/>
</g>
<path d="M488.612 309.374L488.147 355.833L546.3 356.414L546.765 309.955L488.612 309.374Z" fill="#F5F5F5"/>
<path d="M488.69 311.26L488.428 351.868L542.495 352.217L542.758 311.608L488.69 311.26Z" fill="#455A64"/>
<path opacity="0.2" d="M488.406 351.859L507.452 326.736L519.051 342.599L527.035 334.211L542.475 352.203L488.406 351.859Z" fill="black"/>
<g opacity="0.2">
<path opacity="0.2" d="M524.167 323.753C524.162 324.597 523.906 325.42 523.431 326.118C522.957 326.816 522.286 327.358 521.503 327.674C520.721 327.99 519.861 328.067 519.035 327.894C518.208 327.722 517.452 327.308 516.861 326.705C516.271 326.101 515.873 325.337 515.718 324.507C515.563 323.678 515.659 322.821 515.992 322.046C516.326 321.271 516.882 320.612 517.591 320.154C518.3 319.695 519.129 319.457 519.973 319.471C521.097 319.484 522.17 319.942 522.956 320.745C523.743 321.548 524.178 322.63 524.167 323.753Z" fill="black"/>
</g>
<path d="M578.403 325.588H544.831V370.446H578.403V325.588Z" fill="#263238"/>
<path d="M480.556 325.588V370.438H547.649V325.588H480.556ZM521.273 336.197H507.016C506.197 336.197 505.412 335.872 504.834 335.294C504.255 334.716 503.93 333.931 503.93 333.113C503.93 332.295 504.255 331.511 504.834 330.933C505.412 330.354 506.197 330.03 507.016 330.03H521.273C522.092 330.03 522.877 330.354 523.456 330.933C524.034 331.511 524.36 332.295 524.36 333.113C524.36 333.931 524.034 334.716 523.456 335.294C522.877 335.872 522.092 336.197 521.273 336.197Z" fill="#D7FA00"/>
<path d="M436.987 365.753L374.549 361.932C374.154 361.036 373.894 360.516 373.894 360.516L356.97 360.86L351.46 360.516L351.242 360.969L294.431 362.1C283.1 362.1 271.191 369.005 271.191 377.829C271.049 386.209 275.125 395.343 285.272 395.134L362.673 394.874L440.082 395.134C450.23 395.343 452.914 389.268 452.93 381.969C454.113 368.46 445.642 365.862 436.987 365.753Z" fill="#455A64"/>
<path d="M292.376 395.142H292.745H293.844L298.037 395.1L313.619 395.033L365.617 394.966L365.399 395.193C365.29 393.517 365.181 391.681 365.063 389.854C364.828 386.117 364.602 382.43 364.384 378.96L364.577 379.162L316.689 373.748L302.499 372.131L298.674 371.67L297.685 371.544C297.574 371.535 297.465 371.515 297.358 371.485H297.693L298.683 371.578L302.515 371.955L316.722 373.446L364.619 378.625H364.795V378.801C365.021 382.304 365.248 385.983 365.483 389.695C365.6 391.522 365.709 393.341 365.818 395.033V395.268H365.592L313.594 395.193L298.012 395.125H293.818H292.72L292.376 395.142Z" fill="#263238"/>
<path d="M308.336 372.952C308.285 373.011 307.497 372.382 306.147 371.552C304.369 370.471 302.457 369.626 300.461 369.038C298.46 368.469 296.393 368.164 294.313 368.133C292.72 368.133 291.73 368.234 291.722 368.133C291.942 368.045 292.173 367.992 292.41 367.974C293.04 367.877 293.676 367.821 294.313 367.807C298.574 367.682 302.769 368.886 306.315 371.251C306.848 371.602 307.358 371.989 307.841 372.407C308.176 372.751 308.353 372.91 308.336 372.952Z" fill="#263238"/>
<path d="M432.14 369.633C432.14 369.751 419.853 372.726 404.64 376.279C389.426 379.832 377.056 382.614 377.031 382.497C377.006 382.379 389.317 379.405 404.539 375.851C419.761 372.298 432.115 369.558 432.14 369.633Z" fill="#263238"/>
<path d="M421.732 368.427C420.044 369.025 418.425 369.801 416.901 370.74C415.464 371.802 414.15 373.022 412.985 374.377C413.171 373.871 413.456 373.406 413.823 373.011C415.453 370.968 417.668 369.471 420.172 368.72C420.67 368.53 421.199 368.431 421.732 368.427V368.427Z" fill="#263238"/>
<path d="M398.484 297.591L418.268 331.999C419.471 334.091 420.136 336.447 420.205 338.859C420.274 341.27 419.744 343.661 418.662 345.817C417.415 348.306 415.483 350.388 413.092 351.817C410.702 353.247 407.953 353.965 405.168 353.887L374.792 353.049L373.995 342.013L400.74 336.876L382.709 305.686L398.484 297.591Z" fill="#FFBE9D"/>
<path d="M324.765 356.468L352.693 363.86L353.305 355.48L327.566 340.546L346.369 305.686L330.594 297.591L310.81 331.999C309.686 334.084 309.037 336.39 308.907 338.754C308.777 341.119 309.171 343.482 310.06 345.677C310.949 347.872 312.311 349.844 314.05 351.453C315.788 353.062 317.861 354.268 320.119 354.985L324.765 356.468Z" fill="#FFBE9D"/>
<path d="M390.089 319.68L409.177 309.624C406.828 304.867 404.093 300.31 401 295.998C395.087 287.828 385.904 282.121 375.505 279.942L353.548 280.202C350.867 280.439 348.231 281.045 345.715 282.004V281.92C333.798 284.543 320.555 310.513 320.555 310.513L337.983 319.655L338.368 322.387C338.879 326.007 340.456 329.393 342.897 332.116L337.865 365.36L394.173 366.524L387.02 342.742L390.089 319.68Z" fill="#1882FF"/>
<path d="M343.392 332.301C343.085 332.127 342.803 331.912 342.553 331.664C341.83 331.028 341.185 330.308 340.633 329.518C338.823 326.862 337.99 323.661 338.276 320.46C338.561 318.75 338.993 317.067 339.568 315.432C340.071 313.915 340.591 312.574 341.035 311.451C341.48 310.328 341.874 309.432 342.142 308.82C342.265 308.491 342.428 308.178 342.629 307.89C342.552 308.232 342.442 308.566 342.302 308.887C342.042 309.599 341.715 310.496 341.321 311.56C340.926 312.624 340.432 314.074 339.954 315.557C339.401 317.179 338.986 318.844 338.712 320.535C338.572 322.226 338.734 323.929 339.19 325.563C339.551 326.907 340.117 328.187 340.868 329.359C341.626 330.408 342.47 331.392 343.392 332.301Z" fill="#263238"/>
<path d="M334.938 373.388L331.751 336.306H400.43L395.876 373.849L334.938 373.388Z" fill="#263238"/>
<path d="M370.464 356.083C370.466 356.949 370.21 357.796 369.73 358.516C369.249 359.237 368.566 359.799 367.766 360.131C366.965 360.463 366.084 360.551 365.234 360.382C364.384 360.214 363.603 359.797 362.991 359.185C362.378 358.572 361.961 357.792 361.792 356.943C361.624 356.093 361.711 355.213 362.043 354.414C362.376 353.614 362.938 352.931 363.659 352.451C364.381 351.971 365.228 351.715 366.095 351.717C367.254 351.717 368.365 352.177 369.184 352.996C370.004 353.815 370.464 354.925 370.464 356.083Z" fill="#FAFAFA"/>
<path d="M364.887 380.628L376.553 382.254V394.924L365.826 394.648L364.887 380.628Z" fill="#FFBE9D"/>
<path d="M376.561 382.254H381.803C382.822 382.254 383.823 382.522 384.705 383.033L387.464 384.642C389.025 385.506 390.638 386.273 392.295 386.938C395.482 387.96 400.841 389.343 401.973 390.215C405.193 392.729 404.212 395.637 402.442 395.938C400.891 396.215 376.553 394.933 376.553 394.933L376.561 382.254Z" fill="#D7FA00"/>
<path d="M385.158 393.86C384.751 392.811 384.56 391.691 384.596 390.567C384.484 389.436 384.609 388.294 384.965 387.215C385.049 388.313 385.071 389.415 385.032 390.516C385.14 391.628 385.182 392.744 385.158 393.86V393.86Z" fill="#263238"/>
<path d="M387.649 393.801C387.375 391.795 387.391 389.761 387.699 387.759C387.902 388.754 387.967 389.772 387.892 390.785C387.952 391.797 387.87 392.812 387.649 393.801Z" fill="#263238"/>
<path d="M390.584 394.304C390.132 392.262 389.968 390.166 390.097 388.078C390.393 389.082 390.548 390.123 390.559 391.17C390.71 392.209 390.719 393.263 390.584 394.304V394.304Z" fill="#263238"/>
<path d="M382.893 390.508C382.519 390.458 382.156 390.345 381.82 390.173C380.866 389.773 379.98 389.227 379.195 388.555C378.951 388.346 378.7 388.111 378.448 387.852C378.165 387.586 377.937 387.267 377.777 386.913C377.686 386.701 377.652 386.469 377.679 386.239C377.705 386.01 377.791 385.792 377.928 385.606C378.09 385.409 378.321 385.283 378.574 385.254C378.814 385.227 379.058 385.253 379.287 385.329C380.2 385.658 381.004 386.234 381.608 386.993C382.212 387.752 382.593 388.665 382.707 389.628C382.821 390.591 382.664 391.567 382.254 392.447C381.844 393.326 381.197 394.073 380.386 394.606C380.023 394.866 379.613 395.051 379.178 395.151C378.955 395.205 378.722 395.205 378.499 395.151C378.383 395.113 378.277 395.051 378.186 394.971C378.095 394.89 378.022 394.791 377.97 394.681C377.896 394.483 377.87 394.269 377.897 394.059C377.923 393.849 378 393.648 378.121 393.475C378.304 393.165 378.53 392.883 378.792 392.637C379.538 391.918 380.415 391.349 381.375 390.961C381.715 390.797 382.081 390.694 382.457 390.659C382.457 390.659 382.088 390.81 381.442 391.12C380.536 391.557 379.713 392.15 379.01 392.871C378.776 393.092 378.575 393.346 378.415 393.625C378.329 393.753 378.273 393.899 378.251 394.051C378.229 394.203 378.242 394.359 378.289 394.505C378.374 394.643 378.504 394.746 378.657 394.798C378.81 394.85 378.976 394.847 379.128 394.79C379.505 394.694 379.861 394.526 380.176 394.296C380.918 393.8 381.508 393.11 381.883 392.301C382.257 391.491 382.4 390.594 382.297 389.709C382.194 388.823 381.848 387.983 381.298 387.281C380.747 386.58 380.014 386.043 379.178 385.731C379.026 385.656 378.855 385.629 378.687 385.653C378.52 385.677 378.363 385.751 378.239 385.865C378.143 385.999 378.083 386.154 378.065 386.317C378.048 386.48 378.073 386.645 378.138 386.796C378.458 387.391 378.894 387.915 379.421 388.338C380.463 389.231 381.633 389.963 382.893 390.508V390.508Z" fill="#263238"/>
<path d="M402.443 395.93C402.708 395.695 402.925 395.411 403.08 395.092C403.233 394.656 403.282 394.19 403.222 393.731C403.162 393.273 402.996 392.835 402.736 392.452C401.981 391.281 400.833 390.417 399.499 390.014C398.014 389.477 396.253 389.226 394.467 388.664C391.414 387.749 388.5 386.424 385.803 384.726C384.78 384.072 383.983 383.486 383.447 383.05C383.154 382.848 382.887 382.611 382.65 382.346C382.966 382.504 383.267 382.692 383.547 382.907C384.109 383.284 384.923 383.829 385.971 384.449C388.682 386.055 391.576 387.327 394.593 388.237C396.345 388.782 398.098 389.075 399.625 389.62C401.03 390.075 402.222 391.025 402.979 392.293C403.244 392.718 403.403 393.2 403.441 393.699C403.479 394.198 403.395 394.699 403.197 395.159C403.065 395.395 402.882 395.598 402.661 395.754C402.56 395.905 402.451 395.947 402.443 395.93Z" fill="#263238"/>
<path d="M394.5 289.051C394.511 289.112 394.511 289.175 394.5 289.236V289.755C394.458 290.241 394.391 290.92 394.316 291.783C394.131 293.585 393.871 296.158 393.553 299.392V299.585L393.377 299.493L383.195 294.138L383.438 294.071L377.937 303.356L377.819 303.549L377.635 303.415L368.409 296.317H368.678L364.644 299.476L359.142 303.775L358.941 303.934L358.824 303.708L353.582 294.029L353.842 294.113L342.738 299.057L342.528 299.149V298.931L340.851 289.06L341.019 289.16L334.628 291.624L332.951 292.244L332.515 292.403L332.364 292.445C332.364 292.445 332.406 292.445 332.498 292.37L332.926 292.186L334.603 291.498L340.918 288.984L341.061 288.934V289.085C341.555 291.834 342.142 295.144 342.822 298.94L342.587 298.814L353.666 293.786L353.842 293.711L353.934 293.87C355.611 296.937 357.356 300.172 359.193 303.549L358.865 303.482L364.367 299.174L368.401 296.015L368.535 295.915L368.669 296.015L377.895 303.13L377.593 303.188L383.136 293.97L383.22 293.828L383.371 293.903L393.435 299.317L393.242 299.417L394.131 291.825C394.24 290.987 394.324 290.292 394.383 289.806C394.383 289.596 394.442 289.428 394.458 289.286C394.466 289.207 394.48 289.128 394.5 289.051V289.051Z" fill="#F5F5F5"/>
<path d="M402.652 298.387C402.648 298.469 402.634 298.551 402.61 298.63C402.56 298.814 402.501 299.049 402.434 299.342C402.258 299.987 402.023 300.909 401.713 302.082C401.067 304.496 400.128 307.948 398.97 312.281L398.92 312.448L398.769 312.373L386.936 306.708L387.17 306.641C384.143 310.948 380.788 315.733 377.207 320.845L377.056 321.055L376.88 320.87L367.336 311.166L365.323 309.13H365.592L352.693 317.217L352.508 317.334L352.399 317.15L345.438 304.864L345.656 304.948L332.389 309.515L332.263 309.557L332.221 309.432C330.963 305.795 329.965 302.904 329.277 300.901C328.95 299.929 328.69 299.166 328.514 298.63C328.43 298.387 328.372 298.194 328.321 298.043C328.294 297.979 328.277 297.911 328.271 297.842C328.308 297.902 328.336 297.967 328.355 298.035L328.581 298.605C328.774 299.141 329.051 299.887 329.42 300.85C330.133 302.845 331.173 305.719 332.481 309.348L332.313 309.264L345.531 304.63L345.673 304.58L345.749 304.714L352.752 316.965L352.458 316.89L365.357 308.786L365.499 308.694L365.625 308.82C366.29 309.501 366.961 310.18 367.638 310.856L377.207 320.569H376.88L386.894 306.398L386.978 306.272L387.12 306.339L398.912 312.088L398.719 312.18L401.587 302.015L402.375 299.292C402.468 299.007 402.535 298.772 402.594 298.596C402.605 298.524 402.624 298.454 402.652 298.387V298.387Z" fill="#1882FF"/>
<path d="M394.173 239.928C392.491 240.104 390.79 239.932 389.177 239.423C387.564 238.914 386.073 238.079 384.797 236.97C387.85 238.512 391.917 236.391 392.999 233.148C394.081 229.905 393.192 223.863 390.525 221.718C389.244 220.7 387.745 219.991 386.145 219.648C384.544 219.305 382.886 219.337 381.3 219.74C378.155 220.578 374.825 225.363 373.794 228.447L373.852 228.539C373.374 228.347 372.88 228.171 372.393 228.003C368.913 226.774 365.205 226.325 361.532 226.687C357.849 227.069 354.379 228.596 351.611 231.053L372.938 265.302C376.813 264.967 380.243 262.353 382.273 259.043C384.302 255.732 385.082 251.786 385.275 247.906C385.325 246.925 385.317 245.945 385.275 244.964L392.127 246.062C390.898 244.413 389.349 243.028 387.573 241.989C388.748 242.41 390.028 242.436 391.219 242.064C392.41 241.692 393.447 240.942 394.173 239.928V239.928Z" fill="#263238"/>
<path d="M367.235 293.082C370.019 293.024 372.671 291.886 374.631 289.909C376.59 287.932 377.703 285.272 377.735 282.49L378.23 239.878C378.255 239.027 377.956 238.198 377.392 237.56C376.828 236.922 376.042 236.522 375.194 236.442L357.18 231.891C351.401 231.288 347.577 238.378 347.208 244.16C346.805 250.587 346.562 258.448 347.325 263.249C348.86 272.886 356.257 274.143 356.257 274.143C356.257 274.143 356.257 277.872 356.257 282.44C356.264 283.862 356.553 285.269 357.109 286.579C357.666 287.888 358.477 289.074 359.497 290.067C360.516 291.06 361.723 291.84 363.047 292.362C364.372 292.884 365.787 293.137 367.21 293.107L367.235 293.082Z" fill="#FFBE9D"/>
<path d="M350.948 250.403C350.946 250.726 351.07 251.037 351.294 251.271C351.518 251.504 351.824 251.641 352.148 251.651C352.305 251.664 352.463 251.645 352.613 251.595C352.763 251.546 352.902 251.467 353.02 251.363C353.139 251.259 353.236 251.132 353.305 250.991C353.374 250.849 353.414 250.694 353.422 250.537C353.427 250.214 353.305 249.903 353.082 249.67C352.86 249.436 352.554 249.299 352.232 249.288C352.074 249.276 351.915 249.295 351.765 249.344C351.614 249.394 351.475 249.473 351.356 249.576C351.236 249.68 351.139 249.807 351.069 249.949C350.999 250.091 350.958 250.245 350.948 250.403V250.403Z" fill="#263238"/>
<path d="M348.885 248.249C349.036 248.417 349.976 247.721 351.309 247.721C352.643 247.721 353.615 248.392 353.758 248.232C353.901 248.073 353.674 247.864 353.246 247.554C352.668 247.159 351.984 246.949 351.284 246.95C350.59 246.948 349.914 247.169 349.355 247.579C348.978 247.889 348.885 248.182 348.885 248.249Z" fill="#263238"/>
<path d="M363.621 250.403C363.616 250.727 363.739 251.039 363.964 251.273C364.188 251.507 364.496 251.643 364.82 251.651C364.978 251.664 365.136 251.645 365.287 251.595C365.437 251.546 365.576 251.467 365.696 251.363C365.815 251.259 365.913 251.133 365.983 250.991C366.053 250.849 366.094 250.695 366.103 250.537C366.105 250.214 365.981 249.902 365.757 249.669C365.533 249.436 365.227 249.299 364.904 249.288C364.746 249.275 364.587 249.293 364.436 249.342C364.285 249.391 364.145 249.47 364.026 249.574C363.906 249.678 363.808 249.805 363.739 249.947C363.669 250.09 363.629 250.244 363.621 250.403Z" fill="#263238"/>
<path d="M362.01 248.501C362.161 248.66 363.101 247.973 364.434 247.973C365.768 247.973 366.74 248.643 366.883 248.475C367.026 248.308 366.799 248.115 366.371 247.805C365.795 247.407 365.11 247.196 364.409 247.202C363.716 247.197 363.04 247.415 362.48 247.822C362.069 248.14 361.935 248.425 362.01 248.501Z" fill="#263238"/>
<path d="M356.257 274.118C360.801 274.188 365.275 272.995 369.181 270.674C369.181 270.674 366.044 277.294 356.383 276.389L356.257 274.118Z" fill="#EB996E"/>
<path d="M357.742 261.573C357.995 261.256 358.325 261.007 358.7 260.852C359.076 260.697 359.485 260.639 359.889 260.685C360.184 260.715 360.47 260.805 360.73 260.949C360.989 261.093 361.217 261.288 361.398 261.523C361.577 261.744 361.683 262.014 361.703 262.298C361.722 262.581 361.654 262.864 361.507 263.107C361.293 263.345 361.013 263.515 360.702 263.594C360.392 263.673 360.065 263.658 359.763 263.551C359.144 263.322 358.575 262.978 358.085 262.537C357.935 262.432 357.807 262.298 357.708 262.143C357.659 262.07 357.633 261.984 357.633 261.896C357.633 261.808 357.659 261.722 357.708 261.649" fill="#EB996E"/>
<path d="M361.096 259.286C360.878 259.286 360.878 260.719 359.637 261.749C358.396 262.78 356.861 262.587 356.853 262.814C356.844 263.04 357.196 263.099 357.842 263.115C358.693 263.116 359.518 262.82 360.174 262.277C360.802 261.762 361.205 261.023 361.298 260.216C361.356 259.638 361.189 259.286 361.096 259.286Z" fill="#263238"/>
<path d="M361.407 246.171C361.541 246.531 362.866 246.364 364.434 246.548C366.003 246.732 367.261 247.16 367.462 246.841C367.554 246.682 367.336 246.347 366.833 246.003C366.152 245.574 365.382 245.305 364.581 245.216C363.781 245.128 362.97 245.222 362.212 245.492C361.641 245.718 361.348 246.003 361.407 246.171Z" fill="#263238"/>
<path d="M349.103 245.794C349.338 246.096 350.252 245.794 351.359 245.794C352.466 245.794 353.397 246.003 353.607 245.685C353.708 245.526 353.557 245.224 353.146 244.939C352.603 244.587 351.964 244.414 351.317 244.445C350.667 244.456 350.037 244.67 349.514 245.056C349.129 245.341 349.003 245.651 349.103 245.794Z" fill="#263238"/>
<path d="M377.157 251.861C377.548 251.65 377.989 251.551 378.432 251.573C378.876 251.595 379.305 251.738 379.673 251.987C380.564 252.507 381.249 253.318 381.61 254.284C381.972 255.25 381.988 256.312 381.657 257.288C381.325 258.265 380.666 259.098 379.791 259.645C378.916 260.192 377.879 260.42 376.855 260.291" fill="#FFBE9D"/>
<path d="M377.836 257.417C377.836 257.35 378.205 257.492 378.675 257.283C378.966 257.119 379.201 256.871 379.35 256.573C379.5 256.274 379.557 255.938 379.513 255.607C379.512 255.277 379.414 254.955 379.231 254.68C379.047 254.406 378.787 254.192 378.482 254.065C377.995 253.864 377.643 253.964 377.643 253.889C377.643 253.813 377.97 253.587 378.608 253.73C378.976 253.817 379.306 254.024 379.547 254.316C379.839 254.676 380.006 255.119 380.025 255.582C380.076 256.003 379.985 256.43 379.766 256.794C379.548 257.158 379.214 257.439 378.817 257.593C378.138 257.786 377.786 257.45 377.836 257.417Z" fill="#EB996E"/>
<path d="M380.469 259.369C380.469 259.369 380.637 259.462 380.914 259.68L382.096 260.618L386.29 264.154L386.432 264.272L386.315 264.414C384.763 266.275 383.036 268.604 381.098 271.034C380.654 271.587 380.218 272.124 379.79 272.627L379.43 273.046V272.493C379.262 268.571 379.119 265.093 379.044 262.596C379.044 261.414 378.993 260.425 378.977 259.663C378.944 259.306 378.944 258.947 378.977 258.59C379.06 258.939 379.105 259.296 379.111 259.654C379.161 260.417 379.228 261.397 379.312 262.587C379.463 265.101 379.648 268.546 379.84 272.476L379.463 272.342L380.755 270.766C382.692 268.336 384.436 266.023 386.03 264.171V264.431L381.962 260.777L380.838 259.78C380.701 259.657 380.577 259.519 380.469 259.369V259.369Z" fill="#455A64"/>
<path d="M360.954 227.676C358.588 227.698 356.231 227.956 353.917 228.447C351.591 228.945 349.47 230.137 347.837 231.866C347.033 232.738 346.459 233.795 346.166 234.943C345.873 236.092 345.871 237.295 346.16 238.445C346.489 239.582 347.199 240.573 348.172 241.25C349.144 241.927 350.32 242.25 351.502 242.165C353.28 241.931 354.982 240.615 356.702 241.135C358.421 241.654 359.218 243.607 360.895 243.917C362.572 244.227 364.007 242.743 365.667 242.593C367.512 242.433 369.106 243.942 369.927 245.601C370.749 247.26 371.06 249.121 371.882 250.772C372.109 251.321 372.451 251.816 372.885 252.224C373.319 252.631 373.834 252.942 374.398 253.135C374.93 253.244 375.481 253.225 376.004 253.079C376.528 252.934 377.009 252.665 377.408 252.297C378.196 251.545 378.799 250.622 379.17 249.598C380.041 247.458 380.405 245.145 380.233 242.84C380.062 240.535 379.359 238.302 378.179 236.314C377 234.325 375.377 232.637 373.436 231.38C371.495 230.123 369.29 229.331 366.992 229.067" fill="#263238"/>
<path d="M384.47 237.917C384.394 237.917 384.168 237.137 383.581 235.956C382.005 232.875 379.343 230.487 376.108 229.252C374.876 228.782 374.062 228.64 374.07 228.565C374.079 228.489 374.289 228.565 374.658 228.565C375.187 228.637 375.709 228.758 376.217 228.925C377.901 229.48 379.45 230.382 380.763 231.573C382.084 232.758 383.138 234.209 383.858 235.83C384.079 236.315 384.253 236.82 384.378 237.338C384.441 237.525 384.472 237.72 384.47 237.917V237.917Z" fill="#D7FA00"/>
<path d="M391.85 223.796C391.097 223.492 390.32 223.251 389.527 223.076C387.599 222.748 385.616 223.042 383.866 223.914C382.13 224.82 380.633 226.124 379.497 227.718C378.599 228.933 378.18 229.78 378.113 229.746C378.153 229.524 378.232 229.311 378.348 229.118C378.604 228.571 378.901 228.044 379.237 227.542C380.342 225.842 381.871 224.459 383.673 223.528C385.486 222.613 387.557 222.343 389.544 222.766C390.145 222.894 390.724 223.108 391.263 223.402C391.657 223.62 391.867 223.746 391.85 223.796Z" fill="#455A64"/>
<path d="M382.575 235.118C382.682 235.775 382.682 236.446 382.575 237.104C382.406 238.7 381.999 240.262 381.367 241.738C380.739 243.212 379.89 244.582 378.851 245.802C378.446 246.33 377.956 246.786 377.4 247.151C378.84 245.457 380.05 243.581 380.998 241.57C381.799 239.496 382.329 237.327 382.575 235.118Z" fill="#455A64"/>
<path d="M382.851 235.327C382.962 235.496 383.042 235.683 383.086 235.88C383.26 236.395 383.387 236.926 383.464 237.464C383.736 239.255 383.648 241.083 383.204 242.84C382.761 244.597 381.971 246.248 380.88 247.696C380.554 248.133 380.189 248.54 379.79 248.911C379.505 249.179 379.346 249.313 379.321 249.288C379.295 249.263 379.866 248.635 380.629 247.512C381.616 246.055 382.345 244.439 382.784 242.735C383.205 241.026 383.333 239.258 383.162 237.506C383.019 236.165 382.776 235.344 382.851 235.327Z" fill="#455A64"/>
<path d="M408.229 237.523C407.305 237.814 406.52 238.434 406.024 239.265C405.528 240.096 405.354 241.081 405.537 242.032C405.72 242.982 406.246 243.833 407.015 244.421C407.784 245.01 408.743 245.295 409.709 245.223C410.676 245.152 411.582 244.727 412.255 244.032C412.929 243.336 413.323 242.417 413.363 241.45C413.403 240.483 413.086 239.534 412.472 238.786C411.858 238.037 410.989 237.54 410.033 237.389" fill="#EBEBEB"/>
<path d="M419.568 221.056C418.506 221.389 417.604 222.099 417.032 223.053C416.46 224.007 416.26 225.138 416.468 226.23C416.676 227.323 417.279 228.3 418.161 228.978C419.044 229.655 420.145 229.985 421.255 229.904C422.365 229.823 423.406 229.337 424.181 228.539C424.956 227.741 425.41 226.687 425.458 225.576C425.505 224.465 425.143 223.375 424.439 222.514C423.735 221.653 422.739 221.08 421.64 220.905" fill="#EBEBEB"/>
<path d="M443.78 148.485C436.232 147.848 428.525 149.541 423.317 155.089C420.73 157.895 418.801 161.242 417.669 164.886C416.538 168.529 416.232 172.379 416.775 176.156C408.707 179.508 404.313 189.765 407.441 197.944C410.569 206.123 420.717 210.765 428.953 207.858C430.815 212.572 433.875 216.72 437.831 219.892C441.787 223.065 446.502 225.152 451.511 225.949C456.52 226.746 461.651 226.225 466.397 224.436C471.143 222.648 475.341 219.655 478.577 215.752C486.485 217.536 495.35 217.428 502.059 212.768C508.769 208.109 511.721 197.902 506.655 191.567C515.772 189.346 520.401 177.974 517.701 168.991C515 160.008 506.898 153.572 498.26 149.927C492.549 147.513 485.42 146.256 480.548 150.086C478.587 147.073 475.935 144.572 472.811 142.791C469.687 141.01 466.182 140.001 462.589 139.847C458.996 139.694 455.418 140.401 452.153 141.909C448.889 143.418 446.033 145.684 443.822 148.519" fill="#F5F5F5"/>
<path d="M443.78 148.485C443.78 148.485 443.931 148.284 444.242 147.899C444.702 147.334 445.192 146.794 445.709 146.281C447.733 144.292 450.111 142.697 452.721 141.58C454.611 140.762 456.602 140.198 458.642 139.904C461.083 139.565 463.564 139.641 465.98 140.13C468.775 140.693 471.442 141.766 473.847 143.298C476.562 145.029 478.879 147.313 480.648 150.002H480.43C482.502 148.442 485.015 147.58 487.609 147.538C490.359 147.488 493.096 147.925 495.694 148.829C498.453 149.763 501.109 150.979 503.619 152.457C506.285 153.994 508.75 155.854 510.958 157.997C513.295 160.24 515.217 162.878 516.635 165.79C517.34 167.309 517.88 168.899 518.246 170.533C518.579 172.21 518.695 173.922 518.589 175.628C518.38 179.151 517.249 182.558 515.31 185.508C514.3 187.004 513.041 188.317 511.587 189.388C510.105 190.481 508.428 191.283 506.647 191.751L506.756 191.424C507.856 192.828 508.627 194.46 509.012 196.201C509.392 197.97 509.438 199.795 509.146 201.581C508.526 205.25 506.765 208.63 504.114 211.243C501.328 213.838 497.871 215.603 494.134 216.338C490.349 217.111 486.46 217.227 482.636 216.682C481.235 216.506 479.851 216.229 478.493 215.944L478.711 215.869C476.238 218.874 473.188 221.355 469.741 223.165C466.293 224.975 462.519 226.078 458.639 226.408C454.758 226.739 450.851 226.29 447.147 225.089C443.443 223.887 440.017 221.958 437.071 219.414C433.4 216.314 430.539 212.368 428.735 207.916L428.986 208.025C426.667 208.771 424.218 209.025 421.795 208.773C419.372 208.52 417.029 207.766 414.914 206.559C412.902 205.474 411.138 203.983 409.734 202.181C408.329 200.38 407.314 198.306 406.753 196.092C405.807 191.926 406.403 187.559 408.431 183.799C410.224 180.328 413.155 177.577 416.733 176.005L416.65 176.164C416.17 172.844 416.347 169.462 417.17 166.209C418.22 162.001 420.327 158.13 423.292 154.963C424.152 154.066 425.092 153.25 426.101 152.524C427.863 151.258 429.813 150.277 431.88 149.617C435.734 148.432 439.788 148.042 443.797 148.468C443.797 148.468 443.529 148.468 443.009 148.468C442.489 148.468 441.717 148.41 440.694 148.41C437.713 148.411 434.75 148.878 431.913 149.793C429.866 150.459 427.935 151.443 426.194 152.709C425.198 153.429 424.272 154.24 423.426 155.131C422.523 156.106 421.699 157.151 420.96 158.256C419.329 160.715 418.127 163.433 417.404 166.293C416.606 169.513 416.441 172.857 416.918 176.139V176.248L416.809 176.298C413.305 177.855 410.439 180.56 408.682 183.966C406.686 187.652 406.09 191.935 407.005 196.025C407.577 198.194 408.597 200.22 409.997 201.973C411.398 203.727 413.15 205.168 415.14 206.207C417.21 207.385 419.502 208.12 421.871 208.365C424.241 208.61 426.635 208.36 428.902 207.631L429.079 207.573L429.154 207.749C430.99 212.224 433.896 216.182 437.616 219.276C441.337 222.37 445.76 224.506 450.498 225.497C455.614 226.447 460.89 226.029 465.793 224.287C470.695 222.544 475.05 219.539 478.417 215.576L478.501 215.475H478.627C479.977 215.76 481.344 216.036 482.736 216.204C486.508 216.74 490.343 216.626 494.075 215.869C497.737 215.156 501.125 213.431 503.854 210.891C506.435 208.344 508.146 205.047 508.744 201.472C509.062 199.764 509.024 198.009 508.629 196.317C508.235 194.626 507.495 193.034 506.454 191.642L506.253 191.391L506.571 191.307C508.299 190.849 509.925 190.073 511.369 189.019C512.767 187.956 513.975 186.664 514.941 185.198C516.846 182.31 517.956 178.972 518.162 175.519C518.275 173.836 518.165 172.145 517.835 170.491C517.479 168.888 516.95 167.329 516.258 165.84C514.864 162.965 512.973 160.358 510.672 158.139C508.489 156.015 506.049 154.171 503.41 152.65C500.927 151.177 498.3 149.964 495.568 149.03C493.009 148.137 490.312 147.7 487.601 147.739C485.07 147.77 482.615 148.604 480.589 150.119L480.464 150.22L480.371 150.086C477.039 145.044 471.843 141.528 465.921 140.306C463.532 139.812 461.077 139.724 458.658 140.047C453.813 140.734 449.303 142.916 445.76 146.29C445.08 146.96 444.577 147.496 444.267 147.873C443.957 148.251 443.78 148.485 443.78 148.485Z" fill="#263238"/>
<path d="M495.652 174.606C495.652 174.966 480.774 175.259 462.432 175.259C444.091 175.259 429.221 174.966 429.221 174.606C429.221 174.245 444.091 173.952 462.432 173.952C480.774 173.952 495.652 174.245 495.652 174.606Z" fill="#455A64"/>
<path d="M495.652 181.846C495.652 182.206 480.774 182.5 462.432 182.5C444.091 182.5 429.221 182.206 429.221 181.846C429.221 181.486 444.091 181.184 462.432 181.184C480.774 181.184 495.652 181.444 495.652 181.846Z" fill="#455A64"/>
<path d="M495.652 189.011C495.652 189.371 480.774 189.665 462.432 189.665C444.091 189.665 429.221 189.371 429.221 189.011C429.221 188.651 444.091 188.357 462.432 188.357C480.774 188.357 495.652 188.651 495.652 189.011Z" fill="#455A64"/>
<path d="M495.652 196.209C495.652 196.57 480.774 196.863 462.432 196.863C444.091 196.863 429.221 196.57 429.221 196.209C429.221 195.849 444.091 195.556 462.432 195.556C480.774 195.556 495.652 195.849 495.652 196.209Z" fill="#455A64"/>
</svg>
